<svg xmlns="http://www.w3.org/2000/svg" viewBox="0 0 64 64" width="64" height="64">
  <defs>
    <linearGradient id="g" x1="0" x2="1" y1="0" y2="1">
      <stop offset="0%" stop-color="#4a90e2"/>
      <stop offset="100%" stop-color="#0077c2"/>
    </linearGradient>
  </defs>
  <circle cx="32" cy="32" r="28" fill="url(#g)"/>
  <path d="M36.7 14.8l1.3 4.5c1 .3 2 .7 2.9 1.2l4.2-2.2 4.5 7.8-3.8 2.8c.1.5.1 1 .1 1.6s0 1.1-.1 1.6l3.8 2.8-4.5 7.8-4.2-2.2c-.9.5-1.9.9-2.9 1.2l-1.3 4.5h-9.4l-1.3-4.5c-1-.3-2-.7-2.9-1.2l-4.2 2.2-4.5-7.8 3.8-2.8c-.1-.5-.1-1-.1-1.6s0-1.1.1-1.6l-3.8-2.8 4.5-7.8 4.2 2.2c.9-.5 1.9-.9 2.9-1.2l1.3-4.5h9.4zm-4.7 10.4a8.8 8.8 0 1 0 0 17.6 8.8 8.8 0 0 0 0-17.6z" fill="#fff"/>
</svg>
